<svg version="1.0" xmlns="http://www.w3.org/2000/svg" width="258pt" height="258pt" viewBox="0 0 258 258" style="" preserveAspectRatio="xMidYMid meet">
<g fill="#FFFFFFFF" stroke="#FFFFFFFF">
<path d="M 112.728 2.469 C 77.712 7.488 47.006 25.659 26.352 53.585 C 1.853 86.712 -4.949 129.374 7.968 168.901 C 18.520 201.192 42.476 228.496 73.448 243.530 C 114.920 263.662 161.235 260.356 200.088 234.490 C 231.625 213.496 251.786 179.667 255.933 140.789 C 259.059 111.493 249.733 78.040 231.611 53.536 C 204.137 16.387 156.974 -3.872 112.728 2.469 M 143.236 108.230 C 150.390 111.531 157.743 118.805 161.197 126.000 C 163.492 130.780 163.811 132.613 163.629 140.000 C 163.476 146.215 162.843 149.773 161.273 153.235 C 158.389 159.595 150.253 167.523 143.236 170.812 C 138.100 173.219 136.350 173.500 126.500 173.500 C 116.469 173.500 114.996 173.253 109.782 170.692 C 102.249 166.993 95.493 160.287 92.181 153.220 C 89.927 148.411 89.502 146.146 89.512 139.000 C 89.524 130.162 90.880 126.154 96.382 118.687 C 99.433 114.547 107.113 109.179 113.222 106.915 C 121.113 103.992 135.405 104.618 143.236 108.230 M 95.164 80.656 C 100.391 83.071 102.200 85.640 102.200 90.644 C 102.200 97.621 96.959 101.672 89.545 100.427 C 85.465 99.742 83.625 98.173 73.910 87.094 C 70.793 83.540 69.773 83.000 66.183 83.000 C 62.981 83.000 61.724 83.509 60.622 85.250 C 58.349 88.843 56.993 97.322 56.318 112.173 L 55.689 126.000 62.394 126.000 C 70.521 126.000 73.688 124.499 76.986 119.083 C 81.784 111.204 83.226 114.038 82.791 130.488 C 82.545 139.774 82.244 141.525 80.845 141.793 C 79.785 141.996 78.402 140.709 77.001 138.215 C 73.888 132.677 70.507 131.000 62.454 131.000 L 55.717 131.000 56.428 143.250 C 57.302 158.297 58.444 163.901 61.577 168.519 C 62.910 170.482 64.000 172.519 64.000 173.044 C 64.000 173.622 55.683 174.000 43.000 174.000 C 25.775 174.000 22.000 173.751 22.000 172.615 C 22.000 171.853 23.058 170.537 24.351 169.690 C 25.643 168.843 27.556 166.429 28.601 164.325 C 30.356 160.790 30.500 157.882 30.500 126.000 C 30.500 88.416 30.528 88.618 24.595 83.076 C 19.022 77.869 19.117 77.854 56.250 78.190 C 88.866 78.485 90.723 78.603 95.164 80.656 M 206.642 107.292 C 206.325 108.552 205.785 112.265 205.441 115.542 L 204.816 121.500 210.002 115.737 C 219.679 104.985 228.571 102.296 237.987 107.275 C 251.762 114.559 246.438 131.617 230.019 132.805 C 225.086 133.162 223.904 132.904 222.067 131.067 C 220.157 129.157 219.988 128.231 220.585 122.955 L 221.258 117.000 218.586 117.000 C 214.842 117.000 206.567 124.948 204.398 130.627 C 203.038 134.189 202.821 136.992 203.301 144.784 C 204.119 158.055 205.616 164.242 209.058 168.574 C 210.660 170.589 211.726 172.635 211.426 173.119 C 210.742 174.227 170.000 174.293 170.000 173.187 C 170.000 172.740 171.405 171.052 173.123 169.437 C 178.202 164.661 179.000 161.547 179.000 146.500 C 179.000 131.453 178.202 128.339 173.123 123.563 C 171.405 121.948 170.000 120.322 170.000 119.951 C 170.000 119.579 172.552 118.975 175.671 118.609 C 182.612 117.793 187.607 115.647 196.585 109.624 C 204.374 104.399 207.553 103.662 206.642 107.292 "/></g>
<g fill="#1C1A17FF" stroke="#1C1A17FF">
<path d="M 118.257 9.120 C 81.988 12.267 48.668 32.021 28.860 62.120 C 25.641 67.011 23.006 70.000 21.914 70.000 C 20.946 70.000 18.769 71.165 17.077 72.589 C 14.538 74.725 14.000 75.914 14.000 79.389 C 14.000 81.705 14.500 84.100 15.110 84.710 C 15.924 85.524 15.803 87.113 14.658 90.660 C 7.325 113.384 6.561 136.091 12.356 159.030 C 13.740 164.507 14.445 169.343 14.029 170.500 C 12.845 173.787 14.819 178.989 17.926 180.772 C 19.483 181.666 22.218 185.055 24.003 188.303 C 36.865 211.699 59.741 231.412 85.630 241.410 C 116.532 253.345 152.842 251.608 182.500 236.775 C 198.798 228.624 215.840 214.505 225.680 201.000 C 238.931 182.813 249.000 155.675 249.000 138.146 C 249.000 134.690 249.786 131.628 251.500 128.404 C 255.629 120.638 254.116 109.911 248.141 104.595 C 246.964 103.547 246.000 101.896 246.000 100.925 C 246.000 98.324 240.229 82.417 236.776 75.500 C 214.720 31.321 167.459 4.851 118.257 9.120 M 143.236 108.230 C 150.390 111.531 157.743 118.805 161.197 126.000 C 163.492 130.780 163.811 132.613 163.629 140.000 C 163.476 146.215 162.843 149.773 161.273 153.235 C 158.389 159.595 150.253 167.523 143.236 170.812 C 138.100 173.219 136.350 173.500 126.500 173.500 C 116.469 173.500 114.996 173.253 109.782 170.692 C 102.249 166.993 95.493 160.287 92.181 153.220 C 89.927 148.411 89.502 146.146 89.512 139.000 C 89.524 130.162 90.880 126.154 96.382 118.687 C 99.433 114.547 107.113 109.179 113.222 106.915 C 121.113 103.992 135.405 104.618 143.236 108.230 M 95.164 80.656 C 100.391 83.071 102.200 85.640 102.200 90.644 C 102.200 97.621 96.959 101.672 89.545 100.427 C 85.465 99.742 83.625 98.173 73.910 87.094 C 70.793 83.540 69.773 83.000 66.183 83.000 C 62.981 83.000 61.724 83.509 60.622 85.250 C 58.349 88.843 56.993 97.322 56.318 112.173 L 55.689 126.000 62.394 126.000 C 70.521 126.000 73.688 124.499 76.986 119.083 C 81.784 111.204 83.226 114.038 82.791 130.488 C 82.545 139.774 82.244 141.525 80.845 141.793 C 79.785 141.996 78.402 140.709 77.001 138.215 C 73.888 132.677 70.507 131.000 62.454 131.000 L 55.717 131.000 56.428 143.250 C 57.302 158.297 58.444 163.901 61.577 168.519 C 62.910 170.482 64.000 172.519 64.000 173.044 C 64.000 173.622 55.683 174.000 43.000 174.000 C 25.775 174.000 22.000 173.751 22.000 172.615 C 22.000 171.853 23.058 170.537 24.351 169.690 C 25.643 168.843 27.556 166.429 28.601 164.325 C 30.356 160.790 30.500 157.882 30.500 126.000 C 30.500 88.416 30.528 88.618 24.595 83.076 C 19.022 77.869 19.117 77.854 56.250 78.190 C 88.866 78.485 90.723 78.603 95.164 80.656 M 206.642 107.292 C 206.325 108.552 205.785 112.265 205.441 115.542 L 204.816 121.500 210.002 115.737 C 219.679 104.985 228.571 102.296 237.987 107.275 C 251.762 114.559 246.438 131.617 230.019 132.805 C 225.086 133.162 223.904 132.904 222.067 131.067 C 220.157 129.157 219.988 128.231 220.585 122.955 L 221.258 117.000 218.586 117.000 C 214.842 117.000 206.567 124.948 204.398 130.627 C 203.038 134.189 202.821 136.992 203.301 144.784 C 204.119 158.055 205.616 164.242 209.058 168.574 C 210.660 170.589 211.726 172.635 211.426 173.119 C 210.742 174.227 170.000 174.293 170.000 173.187 C 170.000 172.740 171.405 171.052 173.123 169.437 C 178.202 164.661 179.000 161.547 179.000 146.500 C 179.000 131.453 178.202 128.339 173.123 123.563 C 171.405 121.948 170.000 120.322 170.000 119.951 C 170.000 119.579 172.552 118.975 175.671 118.609 C 182.612 117.793 187.607 115.647 196.585 109.624 C 204.374 104.399 207.553 103.662 206.642 107.292 "/></g>
<g fill="#FDCE68FF" stroke="#FDCE68FF">
<path d="M 113.222 106.915 C 107.113 109.179 99.433 114.547 96.382 118.687 C 90.880 126.154 89.524 130.162 89.512 139.000 C 89.502 146.146 89.927 148.411 92.181 153.220 C 95.493 160.287 102.249 166.993 109.782 170.692 C 114.996 173.253 116.469 173.500 126.500 173.500 C 136.350 173.500 138.100 173.219 143.236 170.812 C 150.228 167.535 158.365 159.620 161.308 153.235 C 164.555 146.189 164.408 132.436 161.012 125.500 C 157.700 118.735 150.189 111.438 143.236 108.230 C 135.405 104.618 121.113 103.992 113.222 106.915 M 130.455 111.250 C 131.867 112.488 134.012 116.200 135.222 119.500 C 137.098 124.617 137.422 127.561 137.422 139.500 C 137.422 151.492 137.104 154.358 135.204 159.484 C 130.598 171.914 124.858 173.210 119.736 162.977 C 115.844 155.201 114.264 142.627 115.726 131.049 C 117.358 118.113 121.881 109.000 126.667 109.000 C 127.339 109.000 129.044 110.013 130.455 111.250 "/></g>
<g fill="#FDCE68FF" stroke="#FDCE68FF">
<path d="M 22.000 79.266 C 22.000 80.028 23.168 81.742 24.595 83.076 C 30.528 88.618 30.500 88.416 30.500 126.000 C 30.500 157.882 30.356 160.790 28.601 164.325 C 27.556 166.429 25.643 168.843 24.351 169.690 C 23.058 170.537 22.000 171.853 22.000 172.615 C 22.000 173.751 25.775 174.000 43.000 174.000 C 55.683 174.000 64.000 173.622 64.000 173.044 C 64.000 172.519 62.910 170.482 61.577 168.519 C 58.444 163.901 57.302 158.297 56.428 143.250 L 55.717 131.000 62.454 131.000 C 70.507 131.000 73.888 132.677 77.001 138.215 C 78.402 140.709 79.785 141.996 80.845 141.793 C 82.244 141.525 82.545 139.774 82.791 130.488 C 83.226 114.038 81.784 111.204 76.986 119.083 C 73.688 124.499 70.521 126.000 62.394 126.000 L 55.689 126.000 56.318 112.173 C 56.993 97.322 58.349 88.843 60.622 85.250 C 61.724 83.509 62.981 83.000 66.183 83.000 C 69.773 83.000 70.793 83.540 73.910 87.094 C 83.625 98.173 85.465 99.742 89.545 100.427 C 96.959 101.672 102.200 97.621 102.200 90.644 C 102.200 85.640 100.391 83.071 95.164 80.656 C 90.723 78.603 88.866 78.485 56.250 78.190 C 27.582 77.931 22.000 78.106 22.000 79.266 "/></g>
<g fill="#FDCE68FF" stroke="#FDCE68FF">
<path d="M 196.585 109.624 C 187.607 115.647 182.612 117.793 175.671 118.609 C 172.552 118.975 170.000 119.579 170.000 119.951 C 170.000 120.322 171.405 121.948 173.123 123.563 C 178.202 128.339 179.000 131.453 179.000 146.500 C 179.000 161.547 178.202 164.661 173.123 169.437 C 171.405 171.052 170.000 172.740 170.000 173.187 C 170.000 174.293 210.742 174.227 211.426 173.119 C 211.726 172.635 210.660 170.589 209.058 168.574 C 205.616 164.242 204.119 158.055 203.301 144.784 C 202.821 136.992 203.038 134.189 204.398 130.627 C 206.567 124.948 214.842 117.000 218.586 117.000 L 221.258 117.000 220.585 122.955 C 219.988 128.231 220.157 129.157 222.067 131.067 C 223.904 132.904 225.086 133.162 230.019 132.805 C 246.438 131.617 251.762 114.559 237.987 107.275 C 228.571 102.296 219.679 104.985 210.002 115.737 L 204.816 121.500 205.441 115.542 C 205.785 112.265 206.325 108.552 206.642 107.292 C 207.553 103.662 204.374 104.399 196.585 109.624 "/></g>
<g fill="#1C1A17FF" stroke="#1C1A17FF">
<path d="M 123.364 110.458 C 117.550 114.530 113.776 133.570 115.793 148.650 C 117.244 159.494 121.136 168.032 125.275 169.452 C 127.616 170.255 128.437 170.018 130.519 167.936 C 131.876 166.578 133.985 162.775 135.204 159.484 C 137.104 154.358 137.422 151.492 137.422 139.500 C 137.422 127.561 137.098 124.617 135.222 119.500 C 133.112 113.745 129.246 109.000 126.667 109.000 C 125.995 109.000 124.508 109.656 123.364 110.458 "/></g>
</svg>
